<svg xmlns="http://www.w3.org/2000/svg" viewBox="0 0 24 24" fill="none" stroke="#e4e4d4" stroke-width="2" stroke-linecap="round" stroke-linejoin="round">
  <rect width="24" height="24" rx="6" fill="#344434" stroke="none"/>
  <g transform="translate(3, 3) scale(0.75)">
    <path d="M18 8c.2-2 .7-3.5 1.5-4.5-1 .3-2 .8-3 1.5-1.5-1.5-4-2.5-6.5-2.5-4.5 0-8 3.5-8 8s3.5 8 8 8c2.5 0 5-1 6.5-2.5 1 .7 2 1.2 3 1.5-.8-1-1.3-2.5-1.5-4.5 1-1.5 1.5-3 1.5-4.5s-.5-3-1.5-4.5Z"/>
    <path d="M10 10a1 1 0 1 0 0 2 1 1 0 0 0 0-2Z"/>
  </g>
</svg>
