<svg xmlns="http://www.w3.org/2000/svg" viewBox="0 0 512 512">
  <rect width="512" height="512" rx="120" fill="#344434"/>
  <!-- Decorative Waves to represent water management -->
  <path d="M0 420 Q 128 380 256 420 T 512 420 V 512 H 0 Z" fill="#e4e4d4" opacity="0.1"/>
  <path d="M0 460 Q 128 420 256 460 T 512 460 V 512 H 0 Z" fill="#e4e4d4" opacity="0.2"/>
  
  <!-- Management/Data Grid Background (Subtle) -->
  <path d="M100 100 H 412 M100 200 H 412 M100 300 H 412 M100 400 H 412" stroke="#e4e4d4" stroke-width="1" opacity="0.05"/>
  <path d="M100 100 V 412 M200 100 V 412 M300 100 V 412 M400 100 V 412" stroke="#e4e4d4" stroke-width="1" opacity="0.05"/>

  <!-- Main Fish Icon (Lucide Fish path) -->
  <g transform="translate(128, 128) scale(10.6)" stroke="#e4e4d4" stroke-width="1.8" stroke-linecap="round" stroke-linejoin="round" fill="none">
    <path d="M18 8c.2-2 .7-3.5 1.5-4.5-1 .3-2 .8-3 1.5-1.5-1.5-4-2.5-6.5-2.5-4.5 0-8 3.5-8 8s3.5 8 8 8c2.5 0 5-1 6.5-2.5 1 .7 2 1.2 3 1.5-.8-1-1.3-2.5-1.5-4.5 1-1.5 1.5-3 1.5-4.5s-.5-3-1.5-4.5Z"/>
    <path d="M10 10a1 1 0 1 0 0 2 1 1 0 0 0 0-2Z"/>
  </g>
</svg>
