<svg xmlns="http://www.w3.org/2000/svg" viewBox="0 0 512 512">
  <!-- Background with a slight gradient effect using nested rects -->
  <rect width="512" height="512" rx="128" fill="#344434"/>
  <rect x="40" y="40" width="432" height="432" rx="100" fill="#3a4a3a" opacity="0.5"/>
  
  <!-- Management Elements: Subtle Grid/Chart lines -->
  <path d="M120 380 L392 380 M120 320 L392 320 M120 260 L392 260" stroke="#e4e4d4" stroke-width="2" opacity="0.1"/>
  <path d="M160 400 V150 M240 400 V150 M320 400 V150" stroke="#e4e4d4" stroke-width="2" opacity="0.1"/>

  <!-- Water Waves at the bottom -->
  <path d="M0 440 C 100 410 200 470 300 440 C 400 410 512 440 512 440 V 512 H 0 Z" fill="#e4e4d4" opacity="0.15"/>
  
  <!-- Main Fish Icon (Lucide Fish) - Large and Centered -->
  <g transform="translate(116, 116) scale(11.6)" stroke="#e4e4d4" stroke-width="1.5" stroke-linecap="round" stroke-linejoin="round" fill="none">
    <path d="M18 8c.2-2 .7-3.5 1.5-4.5-1 .3-2 .8-3 1.5-1.5-1.5-4-2.5-6.5-2.5-4.5 0-8 3.5-8 8s3.5 8 8 8c2.5 0 5-1 6.5-2.5 1 .7 2 1.2 3 1.5-.8-1-1.3-2.5-1.5-4.5 1-1.5 1.5-3 1.5-4.5s-.5-3-1.5-4.5Z"/>
    <path d="M10 10a1 1 0 1 0 0 2 1 1 0 0 0 0-2Z"/>
  </g>
</svg>
